<svg xmlns="http://www.w3.org/2000/svg" width="182.57" height="35" viewBox="0 0 182.57 35"><rect class="svg__rect" x="0" y="0" width="115.31" height="35" fill="#F34631"/><rect class="svg__rect" x="113.31" y="0" width="69.25999999999999" height="35" fill="#D53838"/><path class="svg__text" d="M15.69 22L14.22 22L14.22 13.47L16.14 13.47L18.60 20.01L21.06 13.47L22.97 13.47L22.97 22L21.49 22L21.49 19.19L21.64 15.43L19.12 22L18.06 22L15.55 15.43L15.69 19.19L15.69 22ZM28.49 22L26.95 22L30.17 13.47L31.50 13.47L34.73 22L33.18 22L32.49 20.01L29.18 20.01L28.49 22ZM30.83 15.28L29.60 18.82L32.07 18.82L30.83 15.28ZM41.14 22L38.69 22L38.69 13.47L41.21 13.47Q42.34 13.47 43.21 13.97Q44.09 14.48 44.57 15.40Q45.05 16.33 45.05 17.52L45.05 17.52L45.05 17.95Q45.05 19.16 44.57 20.08Q44.08 21.00 43.19 21.50Q42.30 22 41.14 22L41.14 22ZM40.17 14.66L40.17 20.82L41.14 20.82Q42.30 20.82 42.93 20.09Q43.55 19.36 43.56 17.99L43.56 17.99L43.56 17.52Q43.56 16.13 42.96 15.40Q42.35 14.66 41.21 14.66L41.21 14.66L40.17 14.66ZM55.09 22L49.51 22L49.51 13.47L55.05 13.47L55.05 14.66L51.00 14.66L51.00 17.02L54.50 17.02L54.50 18.19L51.00 18.19L51.00 20.82L55.09 20.82L55.09 22ZM66.65 22L64.68 13.47L66.15 13.47L67.47 19.88L69.10 13.47L70.34 13.47L71.96 19.89L73.27 13.47L74.74 13.47L72.77 22L71.35 22L69.73 15.77L68.07 22L66.65 22ZM80.38 22L78.90 22L78.90 13.47L80.38 13.47L80.38 22ZM86.87 14.66L84.23 14.66L84.23 13.47L91.00 13.47L91.00 14.66L88.34 14.66L88.34 22L86.87 22L86.87 14.66ZM96.24 22L94.75 22L94.75 13.47L96.24 13.47L96.24 17.02L100.05 17.02L100.05 13.47L101.53 13.47L101.53 22L100.05 22L100.05 18.21L96.24 18.21L96.24 22Z" fill="#FFFFFF"/><path class="svg__text" d="M129.88 22L127.50 22L127.50 13.60L131.34 13.60Q132.48 13.60 133.32 13.98Q134.16 14.35 134.62 15.06Q135.07 15.76 135.07 16.71L135.07 16.71Q135.07 17.62 134.65 18.30Q134.22 18.98 133.43 19.36L133.43 19.36L135.24 22L132.70 22L131.17 19.77L129.88 19.77L129.88 22ZM129.88 15.47L129.88 17.93L131.20 17.93Q131.93 17.93 132.30 17.61Q132.67 17.29 132.67 16.71L132.67 16.71Q132.67 16.12 132.30 15.79Q131.93 15.47 131.20 15.47L131.20 15.47L129.88 15.47ZM139.79 18.26L139.79 18.26L139.79 13.60L142.17 13.60L142.17 18.19Q142.17 20.20 143.76 20.20L143.76 20.20Q145.35 20.20 145.35 18.19L145.35 18.19L145.35 13.60L147.69 13.60L147.69 18.26Q147.69 20.13 146.65 21.15Q145.61 22.17 143.74 22.17L143.74 22.17Q141.87 22.17 140.83 21.15Q139.79 20.13 139.79 18.26ZM152.19 21.24L152.19 21.24L152.97 19.49Q153.53 19.86 154.28 20.09Q155.02 20.32 155.74 20.32L155.74 20.32Q157.11 20.32 157.11 19.64L157.11 19.64Q157.11 19.28 156.72 19.11Q156.33 18.93 155.46 18.74L155.46 18.74Q154.52 18.53 153.88 18.30Q153.24 18.06 152.79 17.55Q152.34 17.03 152.34 16.16L152.34 16.16Q152.34 15.39 152.75 14.77Q153.17 14.15 154.01 13.79Q154.84 13.43 156.05 13.43L156.05 13.43Q156.88 13.43 157.68 13.62Q158.49 13.80 159.10 14.17L159.10 14.17L158.37 15.93Q157.17 15.28 156.04 15.28L156.04 15.28Q155.33 15.28 155.01 15.49Q154.69 15.70 154.69 16.04L154.69 16.04Q154.69 16.37 155.07 16.54Q155.45 16.71 156.30 16.89L156.30 16.89Q157.26 17.10 157.89 17.33Q158.52 17.56 158.99 18.07Q159.45 18.58 159.45 19.46L159.45 19.46Q159.45 20.21 159.03 20.83Q158.61 21.44 157.77 21.80Q156.93 22.17 155.73 22.17L155.73 22.17Q154.71 22.17 153.75 21.92Q152.79 21.67 152.19 21.24ZM165.82 15.48L163.23 15.48L163.23 13.60L170.76 13.60L170.76 15.48L168.19 15.48L168.19 22L165.82 22L165.82 15.48Z" fill="#FFFFFF" x="126.31"/></svg>